# Blender v2.93.4 OBJ File: 'Tree Trunk.blend'
# www.blender.org
mtllib Tree Trunk.mtl
o Cylinder
v -0.054845 6.608558 -0.700654
v 0.355234 0.000000 -0.370379
v 0.526052 6.608035 -0.487229
v 0.505393 0.000000 -0.012350
v 0.708807 6.607883 0.092665
v 0.377119 0.000000 0.348885
v 0.435870 6.607432 0.562127
v -0.241749 6.605025 0.694108
v -0.137250 0.000000 0.499316
v -0.698997 6.605688 0.189748
v -0.484668 0.000000 0.159171
v -0.439176 0.000000 -0.269924
v -0.598818 6.606120 -0.412025
v -0.064400 0.000000 -0.497912
v -0.038457 2.835410 -0.410878
v 0.301844 2.835410 -0.296696
v 0.416305 2.835410 0.018124
v 0.284558 2.835410 0.302133
v -0.349537 2.835410 -0.233687
v -0.122435 2.835410 0.401745
v -0.397174 2.835410 0.116385
v -0.035026 5.503949 -0.430379
v -0.135905 5.503949 0.420476
v -0.419169 5.503949 0.117386
v 0.320415 5.503949 -0.305428
v 0.436105 5.503949 0.036340
v 0.283840 5.503949 0.328263
v -0.363731 5.503949 -0.249371
v 0.526052 6.608035 -0.487229
v -0.054845 6.608558 -0.700654
v -0.598818 6.606120 -0.412025
v -0.698997 6.605688 0.189748
v 0.708807 6.607883 0.092665
v 0.435870 6.607432 0.562127
v -0.241749 6.605025 0.694108
v 0.526052 6.608035 -0.487229
v -0.054845 6.608558 -0.700654
v -0.598818 6.606120 -0.412025
v -0.698997 6.605688 0.189748
v 0.708807 6.607883 0.092665
v 0.435870 6.607432 0.562127
v -0.241749 6.605025 0.694108
v 1.126052 7.897234 -1.044511
v -0.131342 7.896279 -1.506044
v -1.310354 7.900804 -0.882686
v -1.527827 7.901632 0.421488
v 1.521781 7.897505 0.210773
v 0.931154 7.898324 1.227397
v -0.536922 7.902945 1.515316
v 1.219712 8.659675 -1.131529
v -0.143514 8.659509 -1.632104
v -1.421445 8.660480 -0.955902
v -1.657187 8.660704 0.457751
v 1.648704 8.659729 0.229385
v 1.008326 8.659903 1.331449
v -0.583117 8.661073 1.643467
v 1.217735 8.953605 -1.129703
v -0.143408 8.953404 -1.630194
v -1.416687 8.954328 -0.952654
v -1.650886 8.954489 0.456025
v 1.645837 8.953663 0.229034
v 1.006155 8.953835 1.328683
v -0.580484 8.954735 1.636006
vt 0.735849 0.875000
vt 0.611024 0.875000
vt 0.617216 0.750000
vt 0.741867 0.750000
vt 0.872229 0.875000
vt 0.869810 1.000000
vt 0.729831 1.000000
vt 0.450359 0.875000
vt 0.604831 1.000000
vt 0.448023 1.000000
vt 0.879487 0.500000
vt 0.987183 0.500000
vt 0.984375 0.750000
vt 0.874648 0.750000
vt 0.294603 0.875000
vt 0.292331 1.000000
vt 0.154066 0.875000
vt 0.151649 1.000000
vt 0.022163 0.875000
vt 0.020810 1.000000
vt 0.448023 1.000000
vt 0.292331 1.000000
vt 0.982971 0.875000
vt 0.981567 1.000000
vt 0.720342 0.482421
vt 0.908741 0.418008
vt 0.987076 0.255848
vt 0.918039 0.091521
vt 0.689961 0.031004
vt 0.527831 0.175568
vt 0.553977 0.372015
vt 0.629601 0.500000
vt 0.753903 0.500000
vt 0.026221 0.500000
vt 0.161320 0.500000
vt 0.156484 0.750000
vt 0.023515 0.750000
vt 0.301419 0.500000
vt 0.296875 0.750000
vt 0.457368 0.500000
vt 0.452696 0.750000
vt 0.448023 1.000000
vt 0.292331 1.000000
vt 0.729831 1.000000
vt 0.604831 1.000000
vt 0.151649 1.000000
vt 0.020810 1.000000
vt 0.869810 1.000000
vt 0.981567 1.000000
vt 0.151649 1.000000
vt 0.292331 1.000000
vt 0.151649 1.000000
vt 0.729831 1.000000
vt 0.604831 1.000000
vt 0.020810 1.000000
vt 0.869810 1.000000
vt 0.981567 1.000000
vt 0.604831 1.000000
vt 0.729831 1.000000
vt 0.729831 1.000000
vt 0.604831 1.000000
vt 0.981567 1.000000
vt 0.869810 1.000000
vt 0.448023 1.000000
vt 0.020810 1.000000
vt 0.869810 1.000000
vt 0.981567 1.000000
vt 0.981567 1.000000
vt 0.869810 1.000000
vt 0.151649 1.000000
vt 0.020810 1.000000
vt 0.448023 1.000000
vt 0.292331 1.000000
vt 0.482421 0.220342
vt 0.418376 0.407645
vt 0.233745 0.483742
vt 0.061784 0.383892
vt 0.023921 0.188457
vt 0.177219 0.035384
vt 0.393375 0.064682
vt 0.448023 1.000000
vt 0.292331 1.000000
vt 0.729831 1.000000
vt 0.604831 1.000000
vt 0.151649 1.000000
vt 0.020810 1.000000
vn 0.8969 -0.0069 0.4423
vn 0.9284 -0.2182 -0.3007
vn 0.1956 -0.2239 0.9548
vn 0.3030 0.0285 -0.9526
vn -0.7175 -0.2290 0.6578
vn -0.9607 -0.2308 -0.1545
vn -0.4616 -0.2218 -0.8589
vn 0.0000 0.0000 1.0000
vn 0.3318 -0.2159 -0.9183
vn 0.0000 -1.0000 0.0000
vn 0.9271 0.0308 0.3736
vn -0.5084 0.0291 -0.8606
vn -0.9925 0.0309 -0.1186
vn -0.7087 0.0302 0.7049
vn 0.2618 0.0281 0.9647
vn 0.9302 0.0301 -0.3658
vn 0.3250 -0.0063 -0.9457
vn -0.4885 -0.0067 -0.8725
vn -0.9898 -0.0071 -0.1423
vn -0.7256 -0.0074 0.6881
vn 0.2260 -0.0076 0.9741
vn 0.9437 -0.0062 -0.3308
vn 0.8505 -0.2261 0.4749
vn -0.8452 -0.5155 -0.1408
vn 0.8543 -0.1544 0.4964
vn 0.3000 -0.4928 -0.8168
vn -0.6371 -0.5105 0.5775
vn 0.7443 -0.5087 0.4327
vn -0.4052 -0.5014 -0.7644
vn 0.1658 -0.5007 0.8496
vn 0.8273 -0.4977 -0.2607
vn 0.3449 0.0071 -0.9386
vn -0.4624 -0.1517 -0.8736
vn 0.1899 -0.1521 0.9700
vn 0.9430 -0.1498 -0.2972
vn -0.9740 -0.1582 -0.1624
vn 0.3409 -0.1479 -0.9284
vn -0.7319 -0.1566 0.6632
vn 0.0003 1.0000 -0.0002
vn -0.7407 0.0218 0.6715
vn 0.8645 0.0101 0.5026
vn -0.4687 0.0116 -0.8833
vn 0.1913 0.0169 0.9814
vn 0.9537 0.0086 -0.3006
vn -0.9862 0.0190 -0.1642
usemtl None
s off
f 26/1/1 27/2/1 18/3/1 17/4/1
f 26/1/2 25/5/2 3/6/2 5/7/2
f 23/8/3 27/2/3 7/9/3 8/10/3
f 2/11/4 14/12/4 15/13/4 16/14/4
f 24/15/5 23/8/5 8/10/5 10/16/5
f 28/17/6 24/15/6 10/16/6 13/18/6
f 22/19/7 28/17/7 13/18/7 1/20/7
f 10/16/8 8/10/8 35/21/8 32/22/8
f 25/5/9 22/23/9 1/24/9 3/6/9
f 14/25/10 2/26/10 4/27/10 6/28/10 9/29/10 11/30/10 12/31/10
f 17/4/11 18/3/11 6/32/11 4/33/11
f 14/34/12 12/35/12 19/36/12 15/37/12
f 12/35/13 11/38/13 21/39/13 19/36/13
f 11/38/14 9/40/14 20/41/14 21/39/14
f 9/40/15 6/32/15 18/3/15 20/41/15
f 4/33/16 2/11/16 16/14/16 17/4/16
f 16/14/17 15/13/17 22/23/17 25/5/17
f 15/37/18 19/36/18 28/17/18 22/19/18
f 19/36/19 21/39/19 24/15/19 28/17/19
f 21/39/20 20/41/20 23/8/20 24/15/20
f 20/41/21 18/3/21 27/2/21 23/8/21
f 17/4/22 16/14/22 25/5/22 26/1/22
f 5/7/23 7/9/23 27/2/23 26/1/23
f 32/22/8 35/21/8 42/42/8 39/43/8
f 7/9/8 5/7/8 33/44/8 34/45/8
f 1/20/8 13/18/8 31/46/8 30/47/8
f 8/10/8 7/9/8 34/45/8 35/21/8
f 5/7/8 3/6/8 29/48/8 33/44/8
f 3/6/8 1/24/8 30/49/8 29/48/8
f 13/18/8 10/16/8 32/22/8 31/46/8
f 38/50/24 39/43/24 46/51/24 45/52/24
f 34/45/8 33/44/8 40/53/8 41/54/8
f 30/47/8 31/46/8 38/50/8 37/55/8
f 35/21/8 34/45/8 41/54/8 42/42/8
f 33/44/8 29/48/8 36/56/8 40/53/8
f 31/46/8 32/22/8 39/43/8 38/50/8
f 29/48/8 30/49/8 37/57/8 36/56/8
f 48/58/25 47/59/25 54/60/25 55/61/25
f 36/56/26 37/57/26 44/62/26 43/63/26
f 39/43/27 42/42/27 49/64/27 46/51/27
f 41/54/28 40/53/28 47/59/28 48/58/28
f 37/55/29 38/50/29 45/52/29 44/65/29
f 42/42/30 41/54/30 48/58/30 49/64/30
f 40/53/31 36/56/31 43/63/31 47/59/31
f 50/66/32 51/67/32 58/68/32 57/69/32
f 44/65/33 45/52/33 52/70/33 51/71/33
f 49/64/34 48/58/34 55/61/34 56/72/34
f 47/59/35 43/63/35 50/66/35 54/60/35
f 45/52/36 46/51/36 53/73/36 52/70/36
f 43/63/37 44/62/37 51/67/37 50/66/37
f 46/51/38 49/64/38 56/72/38 53/73/38
f 61/74/39 57/75/39 58/76/39 59/77/39 60/78/39 63/79/39 62/80/39
f 53/73/40 56/72/40 63/81/40 60/82/40
f 55/61/41 54/60/41 61/83/41 62/84/41
f 51/71/42 52/70/42 59/85/42 58/86/42
f 56/72/43 55/61/43 62/84/43 63/81/43
f 54/60/44 50/66/44 57/69/44 61/83/44
f 52/70/45 53/73/45 60/82/45 59/85/45
